<svg xmlns="http://www.w3.org/2000/svg" width="23" height="22.382" viewBox="0 0 23 22.382">
  <g id="house-black-silhouette-without-door" transform="translate(0.5 -4.307)">
    <path id="Path_104" data-name="Path 104" d="M21.724,15.282a1.049,1.049,0,0,0-.086-1.5l-9.832-8.6a1.226,1.226,0,0,0-1.6.018L.342,14.239a1.043,1.043,0,0,0-.047,1.5L.542,16a1.079,1.079,0,0,0,1.481.113l.737-.66v9.666a1.073,1.073,0,0,0,1.073,1.073H7.678a1.073,1.073,0,0,0,1.073-1.073V18.353h4.905v6.763a1.014,1.014,0,0,0,1.008,1.073H18.74a1.073,1.073,0,0,0,1.073-1.073v-9.53l.455.4c.251.22.778.044,1.176-.4Z" transform="translate(0 0)" fill="none" stroke="#fff" stroke-width="1"/>
  </g>
</svg>
