<svg xmlns="http://www.w3.org/2000/svg" width="18.945" height="24.593" viewBox="0 0 18.945 24.593">
  <g id="man-user" transform="translate(-41.395 0.5)">
    <path id="Path_27" data-name="Path 27" d="M109.285,11.538c2.623,0,4.75-2.583,4.75-5.769S113.336,0,109.285,0s-4.75,2.583-4.75,5.769S106.662,11.538,109.285,11.538Z" transform="translate(-58.417)" fill="none" stroke="#fff" stroke-width="1"/>
    <path id="Path_28" data-name="Path 28" d="M41.9,300.472c0-.194,0-.055,0,0Z" transform="translate(0 -280.125)" fill="none" stroke="#fff" stroke-width="1"/>
    <path id="Path_29" data-name="Path 29" d="M308.085,301.663c0-.053,0-.369,0,0Z" transform="translate(-248.247 -281.164)" fill="none" stroke="#fff" stroke-width="1"/>
    <path id="Path_30" data-name="Path 30" d="M59.84,185.873c-.088-5.55-.813-7.132-6.36-8.133a3.9,3.9,0,0,1-5.2,0c-5.487.99-6.256,2.548-6.357,7.953-.008.441-.012.465-.014.413,0,.1,0,.274,0,.583,0,0,1.321,2.662,8.971,2.662s8.971-2.662,8.971-2.662c0-.2,0-.337,0-.431A3.575,3.575,0,0,1,59.84,185.873Z" transform="translate(-0.012 -165.759)" fill="none" stroke="#fff" stroke-width="1"/>
  </g>
</svg>
