<svg xmlns="http://www.w3.org/2000/svg" width="26.309" height="22.299" viewBox="0 0 26.309 22.299">
  <g id="multiple-users-silhouette" transform="translate(0.5 -5.848)">
    <path id="Path_105" data-name="Path 105" d="M15.273,10a4.6,4.6,0,0,1,2.14,3.417A3.71,3.71,0,1,0,15.273,10Zm-2.432,7.6a3.712,3.712,0,1,0-3.712-3.712A3.712,3.712,0,0,0,12.841,17.6Zm1.575.253h-3.15a4.758,4.758,0,0,0-4.753,4.753v3.852l.01.06.265.083a21.633,21.633,0,0,0,6.462,1.042,13.266,13.266,0,0,0,5.642-1.059l.248-.125h.027V22.609A4.757,4.757,0,0,0,14.416,17.857Zm6.141-3.832H17.431a4.574,4.574,0,0,1-1.412,3.186,5.647,5.647,0,0,1,4.034,5.4V23.8a12.789,12.789,0,0,0,4.981-1.046l.248-.126h.027V18.777A4.758,4.758,0,0,0,20.557,14.025ZM6.328,13.772A3.687,3.687,0,0,0,8.3,13.2a4.594,4.594,0,0,1,1.727-2.93c0-.069.01-.138.01-.208a3.712,3.712,0,1,0-3.711,3.711Zm3.333,3.439a4.577,4.577,0,0,1-1.411-3.169c-.116-.009-.231-.018-.349-.018H4.753A4.758,4.758,0,0,0,0,18.777v3.852l.01.059.265.084a22.283,22.283,0,0,0,5.352,1.006V22.615A5.648,5.648,0,0,1,9.661,17.211Z" transform="translate(0 0)" fill="none" stroke="#fff" stroke-width="1"/>
  </g>
</svg>
