<svg xmlns="http://www.w3.org/2000/svg" width="77.333" height="103.111" viewBox="0 0 77.333 103.111">
  <g id="lock" transform="translate(-64)">
    <g id="Group_6" data-name="Group 6" transform="translate(64)">
      <path id="Path_8" data-name="Path 8" d="M139.185,38.667h-6.444V30.074a30.074,30.074,0,1,0-60.148,0v8.593H66.148A2.147,2.147,0,0,0,64,40.815v53.7a8.6,8.6,0,0,0,8.593,8.592h60.148a8.6,8.6,0,0,0,8.592-8.593v-53.7A2.147,2.147,0,0,0,139.185,38.667ZM109.1,83.541a2.149,2.149,0,0,1-2.136,2.385H98.37a2.149,2.149,0,0,1-2.135-2.385L97.59,71.355a8.5,8.5,0,0,1-3.516-6.91,8.593,8.593,0,1,1,17.185,0,8.5,8.5,0,0,1-3.516,6.91Zm10.753-44.874H85.482V30.074a17.185,17.185,0,0,1,34.37,0Z" transform="translate(-64)" fill="#fff"/>
    </g>
  </g>
</svg>
