<svg xmlns="http://www.w3.org/2000/svg" width="16.667" height="16.667" viewBox="0 0 16.667 16.667">
  <path id="date" d="M14.714,1.3h-.781V0h-1.3V1.3H4.036V0h-1.3V1.3H1.953A1.955,1.955,0,0,0,0,3.255V14.714a1.955,1.955,0,0,0,1.953,1.953h12.76a1.955,1.955,0,0,0,1.953-1.953V3.255A1.955,1.955,0,0,0,14.714,1.3ZM1.953,2.6h.781v1.3h1.3V2.6H12.63v1.3h1.3V2.6h.781a.652.652,0,0,1,.651.651V4.818H1.3V3.255A.652.652,0,0,1,1.953,2.6Zm12.76,12.76H1.953a.652.652,0,0,1-.651-.651V6.12H15.365v8.594A.652.652,0,0,1,14.714,15.365ZM2.474,7.487h1.3v1.3h-1.3Zm2.6,0h1.3v1.3h-1.3Zm2.6,0h1.3v1.3h-1.3Zm3.906,1.3h-1.3v-1.3h1.3Zm2.6,0h-1.3v-1.3h1.3Zm-11.719,1.3h1.3v1.3h-1.3Zm2.6,0h1.3v1.3h-1.3Zm2.6,0h1.3v1.3h-1.3ZM2.474,12.7h1.3V14h-1.3Zm2.6,0h1.3V14h-1.3Zm2.6,0h1.3V14h-1.3Zm6.706-1.141-1.074,1.026.254,1.449-1.328-.684-1.328.684.254-1.449-1.074-1.026,1.485-.211.664-1.319.664,1.318Zm0,0" fill="#fff"/>
</svg>
