<svg xmlns="http://www.w3.org/2000/svg" width="232.582" height="216.185" viewBox="0 0 232.582 216.185">
  <g id="_2-follow" data-name="2-follow" transform="translate(-74.084 -86.936)">
    <g id="CIRCLES1" transform="translate(95.084 104)">
      <ellipse id="Ellipse_34" data-name="Ellipse 34" cx="87.295" cy="87.295" rx="87.295" ry="87.295" transform="translate(0 0)" fill="#fff"/>
    </g>
    <g id="world_2_" data-name="world(2)" transform="translate(124.084 133)">
      <g id="Group_756" data-name="Group 756" transform="translate(13.703 15.661)">
        <g id="Group_755" data-name="Group 755">
          <path id="Path_1205" data-name="Path 1205" d="M104.758,68.316a45.025,45.025,0,1,0,45.025,45.025A45.077,45.077,0,0,0,104.758,68.316Zm0,86.135a41.11,41.11,0,1,1,41.11-41.11A41.157,41.157,0,0,1,104.758,154.451Z" transform="translate(-59.733 -68.316)" fill="#334856"/>
        </g>
      </g>
      <g id="Group_758" data-name="Group 758" transform="translate(49.011 19.576)">
        <g id="Group_757" data-name="Group 757">
          <path id="Path_1206" data-name="Path 1206" d="M242.252,85.627a1.98,1.98,0,0,0-.566-.164l-.452-.061a1.936,1.936,0,0,0-1.813.75,1.959,1.959,0,0,0-.253,1.946c1.345,3.214,2.946,9.712.9,11.2l-4.538,1.815a10.137,10.137,0,0,0-6.284,8.247l-.029.225a1.215,1.215,0,0,1-1.012,1.045,1.388,1.388,0,0,1-1.505-.642l-1.944-3.24a3.737,3.737,0,0,0-6.591.327c-1.748,3.733-3.943,9.121-4.475,13.582a7.144,7.144,0,0,0,.713,4.044l2.257,4.514a9.862,9.862,0,0,0,3.553,3.915,25.659,25.659,0,0,1,5.671,4.681,11.777,11.777,0,0,0,7.167,4.2c-.11,3.667.131,9.694,2.627,12.356a4.5,4.5,0,0,0,3.179,1.482,8.441,8.441,0,0,0,1.1.069,9.54,9.54,0,0,0,6.1-2.161c3.089-2.553,4.673-7.044,4.708-13.349l2.8-12.619,1.065,1.774a5.962,5.962,0,0,0,8.688,1.7l4.279-3.211a1.957,1.957,0,0,0,.783-1.566A45.186,45.186,0,0,0,242.252,85.627Zm18.719,42.51a2.047,2.047,0,0,1-2.982-.585l-2.03-3.385a3.167,3.167,0,0,0-5.806.944L246.9,139.771a1.929,1.929,0,0,0-.047.425c0,5.084-1.12,8.717-3.238,10.509a5.578,5.578,0,0,1-4.221,1.273c-.253-.047-.444.157-.855-.282-1.22-1.3-1.836-5.846-1.5-11.053a2.263,2.263,0,0,0-2.267-2.4,7.7,7.7,0,0,1-5.871-2.917,28.822,28.822,0,0,0-6.6-5.5,5.925,5.925,0,0,1-2.14-2.355l-2.257-4.514a3.236,3.236,0,0,1-.327-1.832c.48-4.005,2.645-9.166,3.991-12.077L223.343,112a5.279,5.279,0,0,0,5.648,2.463,5.115,5.115,0,0,0,4.105-4.348l.041-.309a6.212,6.212,0,0,1,3.847-5.061l4.72-1.887a2.073,2.073,0,0,0,.288-.143c3.719-2.259,3.238-7.666,2.261-11.624a41.292,41.292,0,0,1,20.2,34.429Z" transform="translate(-213.639 -85.383)" fill="#334856"/>
        </g>
      </g>
      <g id="Group_760" data-name="Group 760" transform="translate(15.179 66.171)">
        <g id="Group_759" data-name="Group 759">
          <path id="Path_1207" data-name="Path 1207" d="M100.484,310.16,99.3,308.976a15.847,15.847,0,0,0-4.99-3.379l-6.037-2.588a6.6,6.6,0,0,1-4.005-6.076v-2.946a5.5,5.5,0,0,0-7.429-5.147l-9.4,3.524a1.958,1.958,0,0,0-1.2,2.341A45.279,45.279,0,0,0,100.9,327.164a1.989,1.989,0,0,0,.384.037,1.96,1.96,0,0,0,1.883-1.419l.716-2.51A13.361,13.361,0,0,0,100.484,310.16Zm-.366,12.035-.212.736a41.38,41.38,0,0,1-29.394-27.54l7.7-2.886a1.582,1.582,0,0,1,2.14,1.48v2.946a10.513,10.513,0,0,0,6.378,9.675l6.037,2.588a11.991,11.991,0,0,1,3.765,2.549l1.186,1.184A9.444,9.444,0,0,1,100.118,322.2Z" transform="translate(-66.164 -288.491)" fill="#334856"/>
        </g>
      </g>
      <g id="Group_762" data-name="Group 762" transform="translate(13.767 21.728)">
        <g id="Group_761" data-name="Group 761">
          <path id="Path_1208" data-name="Path 1208" d="M84.451,95.487a1.957,1.957,0,0,0-2.523-.446,44.96,44.96,0,0,0-21.914,36.267,1.957,1.957,0,0,0,1.954,2.061,2,2,0,0,0,.709-.131l12.143-4.792a5.93,5.93,0,0,0,3.42-7.374,2,2,0,0,1,.485-2.056l5.642-5.642a10.123,10.123,0,0,0,2.987-7.21v-2.547A12.951,12.951,0,0,0,84.451,95.487Zm-1.012,10.675A6.232,6.232,0,0,1,81.6,110.6l-5.642,5.642a5.891,5.891,0,0,0-1.429,6.061,2.01,2.01,0,0,1-1.159,2.5L64.2,128.439A41.039,41.039,0,0,1,82.364,99.386a8.939,8.939,0,0,1,1.075,4.228v2.547Z" transform="translate(-60.011 -94.763)" fill="#334856"/>
        </g>
      </g>
      <g id="Group_764" data-name="Group 764" transform="translate(50.902 0)">
        <g id="Group_763" data-name="Group 763" transform="translate(0 0)">
          <path id="Path_1209" data-name="Path 1209" d="M229.709.049a59.673,59.673,0,0,0-6.069.309,1.958,1.958,0,0,0,.2,3.905,1.747,1.747,0,0,0,.2-.012,56.3,56.3,0,0,1,5.669-.288,1.958,1.958,0,0,0,0-3.915Z" transform="translate(-221.882 -0.049)" fill="#334856"/>
        </g>
      </g>
      <g id="Group_766" data-name="Group 766" transform="translate(0 54.744)">
        <g id="Group_765" data-name="Group 765">
          <path id="Path_1210" data-name="Path 1210" d="M4.687,251.878a55.434,55.434,0,0,1-.771-9.213q0-.981.035-1.958a1.958,1.958,0,0,0-3.913-.135Q0,241.615,0,242.666a59.491,59.491,0,0,0,.824,9.866,1.959,1.959,0,0,0,1.928,1.631,1.909,1.909,0,0,0,.331-.027A1.958,1.958,0,0,0,4.687,251.878Z" transform="translate(0 -238.682)" fill="#334856"/>
        </g>
      </g>
      <g id="Group_768" data-name="Group 768" transform="translate(3.895 77.48)">
        <g id="Group_767" data-name="Group 767">
          <path id="Path_1211" data-name="Path 1211" d="M25.89,348.974a54.753,54.753,0,0,1-5.131-9.945,1.958,1.958,0,0,0-3.645,1.429,58.742,58.742,0,0,0,5.5,10.655,1.958,1.958,0,1,0,3.279-2.139Z" transform="translate(-16.978 -337.786)" fill="#334856"/>
        </g>
      </g>
      <g id="Group_770" data-name="Group 770" transform="translate(1.615 32.349)">
        <g id="Group_769" data-name="Group 769">
          <path id="Path_1212" data-name="Path 1212" d="M13.734,141.251a1.96,1.96,0,0,0-2.61.924,58.383,58.383,0,0,0-4.027,11.3,1.957,1.957,0,0,0,1.437,2.367,2.018,2.018,0,0,0,.466.055,1.962,1.962,0,0,0,1.9-1.494,54.5,54.5,0,0,1,3.757-10.54A1.956,1.956,0,0,0,13.734,141.251Z" transform="translate(-7.041 -141.06)" fill="#334856"/>
        </g>
      </g>
      <g id="Group_772" data-name="Group 772" transform="translate(11.542 13.985)">
        <g id="Group_771" data-name="Group 771">
          <path id="Path_1213" data-name="Path 1213" d="M61.659,61.683a1.956,1.956,0,0,0-2.762-.188,59.274,59.274,0,0,0-8.185,8.76,1.957,1.957,0,1,0,3.117,2.369,55.171,55.171,0,0,1,7.643-8.179A1.958,1.958,0,0,0,61.659,61.683Z" transform="translate(-50.313 -61.011)" fill="#334856"/>
        </g>
      </g>
      <g id="Group_774" data-name="Group 774" transform="translate(35.731 109.518)">
        <g id="Group_773" data-name="Group 773">
          <path id="Path_1214" data-name="Path 1214" d="M169.2,480.638a54.655,54.655,0,0,1-10.761-3.058,1.957,1.957,0,1,0-1.452,3.635,58.42,58.42,0,0,0,11.534,3.277,2.013,2.013,0,0,0,.341.029,1.957,1.957,0,0,0,.339-3.884Z" transform="translate(-155.754 -477.44)" fill="#334856"/>
        </g>
      </g>
      <g id="Group_776" data-name="Group 776" transform="translate(58.44 112.01)">
        <g id="Group_775" data-name="Group 775">
          <path id="Path_1215" data-name="Path 1215" d="M270.1,489.807a1.962,1.962,0,0,0-2.357-1.453,54.932,54.932,0,0,1-11.1,1.458,1.957,1.957,0,0,0,.055,3.913c.018,0,.037,0,.059,0a58.9,58.9,0,0,0,11.889-1.56A1.96,1.96,0,0,0,270.1,489.807Z" transform="translate(-254.742 -488.302)" fill="#334856"/>
        </g>
      </g>
      <g id="Group_778" data-name="Group 778" transform="translate(28.917 2.661)">
        <g id="Group_777" data-name="Group 777">
          <path id="Path_1216" data-name="Path 1216" d="M140.5,13.011a1.96,1.96,0,0,0-2.459-1.273,58.513,58.513,0,0,0-11,4.792,1.958,1.958,0,0,0,1.924,3.41,54.48,54.48,0,0,1,10.258-4.471A1.959,1.959,0,0,0,140.5,13.011Z" transform="translate(-126.052 -11.647)" fill="#334856"/>
        </g>
      </g>
      <g id="Group_780" data-name="Group 780" transform="translate(16.504 96.787)">
        <g id="Group_779" data-name="Group 779">
          <path id="Path_1217" data-name="Path 1217" d="M83.939,429.62a55.156,55.156,0,0,1-8.655-7.1,1.958,1.958,0,1,0-2.776,2.762,59.254,59.254,0,0,0,9.269,7.6,1.959,1.959,0,0,0,2.161-3.267Z" transform="translate(-71.94 -421.947)" fill="#334856"/>
        </g>
      </g>
      <g id="Group_782" data-name="Group 782" transform="translate(80.964 105.365)">
        <g id="Group_781" data-name="Group 781">
          <path id="Path_1218" data-name="Path 1218" d="M361.728,460.281a1.959,1.959,0,0,0-2.69-.66,55,55,0,0,1-4.992,2.68,1.958,1.958,0,1,0,1.672,3.541,58.542,58.542,0,0,0,5.35-2.872A1.961,1.961,0,0,0,361.728,460.281Z" transform="translate(-352.923 -459.337)" fill="#334856"/>
        </g>
      </g>
      <g id="Group_784" data-name="Group 784" transform="translate(95.924 86.134)">
        <g id="Group_783" data-name="Group 783">
          <path id="Path_1219" data-name="Path 1219" d="M439.255,376.266a1.956,1.956,0,0,0-2.746-.345l-17.619,13.7a1.964,1.964,0,0,0-.756,1.546v5.873a1.958,1.958,0,1,0,3.915,0v-4.916l16.861-13.116A1.957,1.957,0,0,0,439.255,376.266Z" transform="translate(-418.134 -375.508)" fill="#334856"/>
        </g>
      </g>
      <g id="Group_786" data-name="Group 786" transform="translate(90.051 97.878)">
        <g id="Group_785" data-name="Group 785">
          <path id="Path_1220" data-name="Path 1220" d="M400.986,428.764l-5.873-1.958a1.957,1.957,0,0,0-1.239,3.714l5.873,1.958a1.957,1.957,0,0,0,1.239-3.714Z" transform="translate(-392.535 -426.704)" fill="#334856"/>
        </g>
      </g>
      <g id="Group_788" data-name="Group 788" transform="translate(95.922 86.132)">
        <g id="Group_787" data-name="Group 787">
          <path id="Path_1221" data-name="Path 1221" d="M435.605,392.393l-3.915-9.788a1.955,1.955,0,0,0-.811-.951l-9.788-5.873a1.958,1.958,0,1,0-2.014,3.357l9.222,5.534,3.671,9.177a1.96,1.96,0,0,0,1.818,1.231,1.9,1.9,0,0,0,.726-.143A1.957,1.957,0,0,0,435.605,392.393Z" transform="translate(-418.126 -375.502)" fill="#334856"/>
        </g>
      </g>
    </g>
    <g id="cc" transform="translate(74.085 86.936)">
      <g id="Group_754" data-name="Group 754" transform="translate(0 0)">
        <g id="Group_664" data-name="Group 664" transform="translate(157.924)">
          <g id="Group_649" data-name="Group 649" transform="translate(49.719 26.511)">
            <path id="Path_1171" data-name="Path 1171" d="M963.861,270.8a2.522,2.522,0,1,0-3.566,0A2.521,2.521,0,0,0,963.861,270.8Z" transform="translate(-959.556 -266.491)" fill="#fff"/>
          </g>
          <g id="Group_650" data-name="Group 650" transform="translate(36.15 10.177)">
            <path id="Path_1172" data-name="Path 1172" d="M910.1,203.495a1.968,1.968,0,1,0,0,2.784A1.968,1.968,0,0,0,910.1,203.495Z" transform="translate(-906.739 -202.918)" fill="#fff"/>
          </g>
          <g id="Group_651" data-name="Group 651" transform="translate(26.039)">
            <path id="Path_1173" data-name="Path 1173" d="M867.545,164.232a.543.543,0,1,0,0-.768A.543.543,0,0,0,867.545,164.232Z" transform="translate(-867.385 -163.304)" fill="#fff"/>
          </g>
          <g id="Group_652" data-name="Group 652" transform="translate(32.049 26.39)">
            <path id="Path_1174" data-name="Path 1174" d="M892.713,266.355a1.135,1.135,0,1,0,0,1.6A1.135,1.135,0,0,0,892.713,266.355Z" transform="translate(-890.776 -266.022)" fill="#fff"/>
          </g>
          <g id="Group_653" data-name="Group 653" transform="translate(17.727 18.315)">
            <path id="Path_1175" data-name="Path 1175" d="M836.418,234.832a.813.813,0,1,0,0,1.149A.813.813,0,0,0,836.418,234.832Z" transform="translate(-835.031 -234.594)" fill="#fff"/>
          </g>
          <g id="Group_654" data-name="Group 654" transform="translate(17.545 24.755)">
            <path id="Path_1176" data-name="Path 1176" d="M835.927,259.932a.938.938,0,1,0,0,1.326A.938.938,0,0,0,835.927,259.932Z" transform="translate(-834.325 -259.657)" fill="#fff"/>
          </g>
          <g id="Group_655" data-name="Group 655" transform="translate(25.13 43.893)">
            <path id="Path_1177" data-name="Path 1177" d="M866.62,334.624a1.625,1.625,0,1,0,0,2.3A1.625,1.625,0,0,0,866.62,334.624Z" transform="translate(-863.846 -334.148)" fill="#fff"/>
          </g>
          <g id="Group_656" data-name="Group 656" transform="translate(38.09 40.953)">
            <path id="Path_1178" data-name="Path 1178" d="M917.207,323.208a1.708,1.708,0,1,0,0,2.416A1.708,1.708,0,0,0,917.207,323.208Z" transform="translate(-914.29 -322.707)" fill="#fff"/>
          </g>
          <g id="Group_657" data-name="Group 657" transform="translate(21.61 61.174)">
            <path id="Path_1179" data-name="Path 1179" d="M852.044,401.736a1.113,1.113,0,1,0,0,1.573A1.113,1.113,0,0,0,852.044,401.736Z" transform="translate(-850.145 -401.41)" fill="#fff"/>
          </g>
          <g id="Group_658" data-name="Group 658" transform="translate(6.437 57.574)">
            <path id="Path_1180" data-name="Path 1180" d="M794.572,388a2.04,2.04,0,1,0,0,2.886A2.04,2.04,0,0,0,794.572,388Z" transform="translate(-791.089 -387.398)" fill="#fff"/>
          </g>
          <g id="Group_659" data-name="Group 659" transform="translate(11.346 46.338)">
            <path id="Path_1181" data-name="Path 1181" d="M811.635,343.914a.842.842,0,1,0,0,1.192A.842.842,0,0,0,811.635,343.914Z" transform="translate(-810.197 -343.667)" fill="#fff"/>
          </g>
          <g id="Group_660" data-name="Group 660" transform="translate(0 30.015)">
            <path id="Path_1182" data-name="Path 1182" d="M767.22,280.335a.7.7,0,1,0,0,.983A.7.7,0,0,0,767.22,280.335Z" transform="translate(-766.034 -280.131)" fill="#fff"/>
          </g>
          <g id="Group_661" data-name="Group 661" transform="translate(58.291 15.723)">
            <path id="Path_1183" data-name="Path 1183" d="M994.712,224.812a1.051,1.051,0,1,0,0,1.486A1.051,1.051,0,0,0,994.712,224.812Z" transform="translate(-992.918 -224.504)" fill="#fff"/>
          </g>
          <g id="Group_662" data-name="Group 662" transform="translate(14.735 35.911)">
            <ellipse id="Ellipse_35" data-name="Ellipse 35" cx="1.275" cy="1.275" rx="1.275" ry="1.275" fill="#fff"/>
          </g>
          <g id="Group_663" data-name="Group 663" transform="translate(35.173 54.991)">
            <ellipse id="Ellipse_36" data-name="Ellipse 36" cx="3.091" cy="3.091" rx="3.091" ry="3.091" fill="#fff"/>
          </g>
        </g>
        <g id="Group_665" data-name="Group 665" transform="translate(190.61 25.578)">
          <path id="Path_1184" data-name="Path 1184" d="M895.017,262.863l-1.758,8.982,8.868-3.218Z" transform="translate(-893.259 -262.863)" fill="#fff"/>
        </g>
        <g id="Group_690" data-name="Group 690" transform="translate(21.404 17.538)">
          <path id="Path_1196" data-name="Path 1196" d="M321.9,406.043a87.237,87.237,0,1,1,61.686-25.551A86.666,86.666,0,0,1,321.9,406.043Zm0-173.7a86.466,86.466,0,1,0,61.141,25.325A85.9,85.9,0,0,0,321.9,232.339Z" transform="translate(-234.659 -231.568)" fill="#fff"/>
        </g>
        <g id="c" transform="translate(109.556 4.67)">
          <path id="Path_1197" data-name="Path 1197" d="M600,413.513v-2.055a96.5,96.5,0,1,0,0-192.991v-2.055a98.551,98.551,0,1,1,0,197.1Z" transform="translate(-600 -216.412)" fill="#fff"/>
        </g>
        <g id="Group_692" data-name="Group 692" transform="translate(203.218 48.955)">
          <path id="Path_1198" data-name="Path 1198" d="M956.213,356.992l-5.874,2.733-2.733-5.874-2.132.991,2.733,5.874-5.874,2.733.992,2.132,5.874-2.733,2.733,5.874,2.132-.992-2.733-5.874,5.875-2.733Z" transform="translate(-942.333 -353.85)" fill="#fff"/>
        </g>
        <g id="Group_693" data-name="Group 693" transform="translate(212.617 30.182)">
          <path id="Path_1199" data-name="Path 1199" d="M978.943,289.21a2.081,2.081,0,0,1,3.771-1.624,1.481,1.481,0,0,0,2.7-1.162,2.081,2.081,0,0,1,3.771-1.624,1.481,1.481,0,0,0,2.7-1.161,2.081,2.081,0,0,1,3.771-1.624,1.481,1.481,0,0,0,2.7-1.162l.509-.071a1.991,1.991,0,0,1-3.607,1.554,1.571,1.571,0,0,0-2.861,1.232,1.99,1.99,0,0,1-3.607,1.554,1.571,1.571,0,0,0-2.861,1.232,1.991,1.991,0,0,1-3.607,1.554,1.571,1.571,0,0,0-2.861,1.232Z" transform="translate(-978.916 -280.782)" fill="#fff"/>
        </g>
        <g id="Group_694" data-name="Group 694" transform="translate(176.564 20.143)">
          <path id="Path_1200" data-name="Path 1200" d="M841.748,248.033a3.163,3.163,0,1,1,2.237-.926A3.142,3.142,0,0,1,841.748,248.033Zm0-6.069a2.906,2.906,0,1,0,2.055.851A2.887,2.887,0,0,0,841.748,241.964Z" transform="translate(-838.585 -241.707)" fill="#fff"/>
        </g>
        <g id="Group_695" data-name="Group 695" transform="translate(21.674 151.339)">
          <rect id="Rectangle_184" data-name="Rectangle 184" width="6.971" height="6.972" transform="translate(0 6.195) rotate(-62.702)" fill="#fff"/>
        </g>
        <g id="Group_696" data-name="Group 696" transform="translate(7.801 208.964)">
          <path id="Path_1201" data-name="Path 1201" d="M186.475,979.813l1.076-2.456-1.605-.7-1.076,2.456-2.456-1.076-.7,1.605,2.456,1.076-1.076,2.456,1.605.7,1.076-2.456,2.456,1.076.7-1.605Z" transform="translate(-181.71 -976.654)" fill="#fff"/>
        </g>
        <g id="Group_697" data-name="Group 697" transform="translate(37.169 188.153)">
          <path id="Path_1202" data-name="Path 1202" d="M307.582,897.351l-11.563-1.7,4.639,11.117Z" transform="translate(-296.019 -895.65)" fill="#fff"/>
        </g>
        <g id="Group_698" data-name="Group 698" transform="translate(61.225 191.507)">
          <path id="Path_1203" data-name="Path 1203" d="M393.206,915.808l-3.552-3.552,3.552-3.552,3.552,3.552Zm-3.189-3.552,3.189,3.189,3.189-3.189-3.189-3.189Z" transform="translate(-389.654 -908.704)" fill="#fff"/>
        </g>
        <g id="Group_699" data-name="Group 699" transform="translate(0 173.058)">
          <rect id="Rectangle_185" data-name="Rectangle 185" width="26.127" height="0.729" transform="translate(0.168 0) rotate(13.297)" fill="#fff"/>
        </g>
        <g id="Group_700" data-name="Group 700" transform="translate(8.418 180.823)">
          <path id="Path_1204" data-name="Path 1204" d="M189.577,878.054a5.466,5.466,0,1,1,5.466-5.466A5.472,5.472,0,0,1,189.577,878.054Zm0-10.675a5.209,5.209,0,1,0,5.209,5.209A5.215,5.215,0,0,0,189.577,867.379Z" transform="translate(-184.111 -867.122)" fill="#fff"/>
        </g>
        <g id="Group_701" data-name="Group 701" transform="translate(30.311 171.818)">
          <ellipse id="Ellipse_38" data-name="Ellipse 38" cx="1.688" cy="1.688" rx="1.688" ry="1.688" fill="#fff"/>
        </g>
        <g id="Group_702" data-name="Group 702" transform="translate(30.288 203.638)">
          <ellipse id="Ellipse_39" data-name="Ellipse 39" cx="1.128" cy="1.128" rx="1.128" ry="1.128" fill="#fff"/>
        </g>
      </g>
    </g>
  </g>
</svg>
