<svg xmlns="http://www.w3.org/2000/svg" width="24" height="24" viewBox="0 0 24 24">
  <g id="ic_search_white" transform="translate(0)">
    <path id="path" d="M24,0H0V-24H24Z" transform="translate(0 24)" fill="rgba(0,0,0,0)" fill-rule="evenodd"/>
    <path id="ic_search_white-2" data-name="ic_search_white" d="M15.509-9.485h-.794l-.276-.274a6.472,6.472,0,0,0,1.569-4.228,6.5,6.5,0,0,0-6.5-6.5,6.5,6.5,0,0,0-6.5,6.5,6.5,6.5,0,0,0,6.5,6.5,6.474,6.474,0,0,0,4.227-1.567l.276.274v.792l5,4.994L20.5-4.483l-4.991-5Zm-6.005,0a4.5,4.5,0,0,1-4.5-4.5,4.5,4.5,0,0,1,4.5-4.5,4.5,4.5,0,0,1,4.5,4.5,4.5,4.5,0,0,1-4.5,4.5Z" transform="translate(0 23.491)" fill="#fff" fill-rule="evenodd"/>
  </g>
</svg>
