<svg xmlns="http://www.w3.org/2000/svg" width="232.582" height="216.185" viewBox="0 0 232.582 216.185">
  <g id="_1-register" data-name="1-register" transform="translate(-74.084 -86.936)">
    <g id="CIRCLES1" transform="translate(95.084 104)">
      <ellipse id="Ellipse_34" data-name="Ellipse 34" cx="87.295" cy="87.295" rx="87.295" ry="87.295" transform="translate(0 0)" fill="#fff"/>
    </g>
    <g id="binoculars" transform="translate(129.086 142)">
      <path id="Path_1222" data-name="Path 1222" d="M25.049,100.2A25.062,25.062,0,0,0,50.008,76.938h7.336a25.035,25.035,0,0,0,50.012-1.789c0-.673-.048-1.332-.1-1.991l.087-.01-5.368-44.732a1.791,1.791,0,0,0-.512-1.053l-.279-.279a26.53,26.53,0,0,0-2.827-2.419L94.793,7.3a1.787,1.787,0,0,0-.357-.751l-.678-.855a14.384,14.384,0,0,0-22.917,0l-.68.857A1.778,1.778,0,0,0,69.8,7.3L66.238,24.666a26.529,26.529,0,0,0-2.827,2.419l-.279.279a1.8,1.8,0,0,0-.512,1.062L61.992,34H45.383l-.664-5.532a1.8,1.8,0,0,0-.512-1.052l-.279-.28a26.6,26.6,0,0,0-2.815-2.41L37.535,7.3a1.787,1.787,0,0,0-.357-.751L36.5,5.689a14.384,14.384,0,0,0-22.917,0l-.68.857a1.783,1.783,0,0,0-.349.751L8.976,24.724a26.588,26.588,0,0,0-2.814,2.41l-.28.28a1.79,1.79,0,0,0-.512,1.061L.629,69.642A24.982,24.982,0,0,0,25.049,100.2Zm0-3.579A21.491,21.491,0,0,1,3.578,75.251l.575-4.978a21.471,21.471,0,1,1,20.9,26.347Zm32.3-23.261H50.011v-.154l.086-.01L48.818,62.624h9.87l-.816,7.064a24.768,24.768,0,0,0-.524,3.671ZM59.1,59.045H48.388L46.67,44.731H60.754Zm23.2,37.575a21.493,21.493,0,0,1-21.471-21.4l.566-4.9A21.471,21.471,0,1,1,82.306,96.62ZM73.238,8.434l.415-.527a10.809,10.809,0,0,1,17.306,0l.416.525,2.8,13.634a26.794,26.794,0,0,0-23.733,0ZM98.5,29.458l3.655,30.466A24.963,24.963,0,0,0,62.624,59.7L66.113,29.46a23.146,23.146,0,0,1,32.384,0ZM61.58,37.574l-.413,3.579H46.241l-.43-3.579ZM15.981,8.434l.415-.527a10.809,10.809,0,0,1,17.306,0l.416.525L36.926,22.12a26.788,26.788,0,0,0-23.754,0ZM8.861,29.5a23.146,23.146,0,0,1,32.386,0L44.9,59.909A24.962,24.962,0,0,0,5.38,59.69Zm0,0" transform="translate(0 0)" fill="#d97d54"/>
      <path id="Path_1223" data-name="Path 1223" d="M49.893,256a17.893,17.893,0,1,0,17.893,17.893A17.894,17.894,0,0,0,49.893,256Zm0,32.207a14.314,14.314,0,1,1,14.314-14.314A14.314,14.314,0,0,1,49.893,288.2Zm0,0" transform="translate(-24.844 -198.74)" fill="#d97d54"/>
      <path id="Path_1224" data-name="Path 1224" d="M305.893,256a17.893,17.893,0,1,0,17.893,17.893A17.894,17.894,0,0,0,305.893,256Zm0,32.207a14.314,14.314,0,1,1,14.314-14.314A14.314,14.314,0,0,1,305.893,288.2Zm0,0" transform="translate(-223.587 -198.74)" fill="#d97d54"/>
      <path id="Path_1225" data-name="Path 1225" d="M40.047,155.21l1.8-19.683,3.564.325-1.8,19.684Zm0,0" transform="translate(-31.091 -105.215)" fill="#d97d54"/>
      <path id="Path_1226" data-name="Path 1226" d="M296.105,155.168l1.8-19.684,3.565.326-1.8,19.684Zm0,0" transform="translate(-229.879 -105.182)" fill="#d97d54"/>
    </g>
    <g id="cc" transform="translate(74.085 86.936)">
      <g id="Group_754" data-name="Group 754" transform="translate(0 0)">
        <g id="Group_664" data-name="Group 664" transform="translate(157.924)">
          <g id="Group_649" data-name="Group 649" transform="translate(49.719 26.511)">
            <path id="Path_1171" data-name="Path 1171" d="M963.861,270.8a2.522,2.522,0,1,0-3.566,0A2.521,2.521,0,0,0,963.861,270.8Z" transform="translate(-959.556 -266.491)" fill="#fff"/>
          </g>
          <g id="Group_650" data-name="Group 650" transform="translate(36.15 10.177)">
            <path id="Path_1172" data-name="Path 1172" d="M910.1,203.495a1.968,1.968,0,1,0,0,2.784A1.968,1.968,0,0,0,910.1,203.495Z" transform="translate(-906.739 -202.918)" fill="#fff"/>
          </g>
          <g id="Group_651" data-name="Group 651" transform="translate(26.039)">
            <path id="Path_1173" data-name="Path 1173" d="M867.545,164.232a.543.543,0,1,0,0-.768A.543.543,0,0,0,867.545,164.232Z" transform="translate(-867.385 -163.304)" fill="#fff"/>
          </g>
          <g id="Group_652" data-name="Group 652" transform="translate(32.049 26.39)">
            <path id="Path_1174" data-name="Path 1174" d="M892.713,266.355a1.135,1.135,0,1,0,0,1.6A1.135,1.135,0,0,0,892.713,266.355Z" transform="translate(-890.776 -266.022)" fill="#fff"/>
          </g>
          <g id="Group_653" data-name="Group 653" transform="translate(17.727 18.315)">
            <path id="Path_1175" data-name="Path 1175" d="M836.418,234.832a.813.813,0,1,0,0,1.149A.813.813,0,0,0,836.418,234.832Z" transform="translate(-835.031 -234.594)" fill="#fff"/>
          </g>
          <g id="Group_654" data-name="Group 654" transform="translate(17.545 24.755)">
            <path id="Path_1176" data-name="Path 1176" d="M835.927,259.932a.938.938,0,1,0,0,1.326A.938.938,0,0,0,835.927,259.932Z" transform="translate(-834.325 -259.657)" fill="#fff"/>
          </g>
          <g id="Group_655" data-name="Group 655" transform="translate(25.13 43.893)">
            <path id="Path_1177" data-name="Path 1177" d="M866.62,334.624a1.625,1.625,0,1,0,0,2.3A1.625,1.625,0,0,0,866.62,334.624Z" transform="translate(-863.846 -334.148)" fill="#fff"/>
          </g>
          <g id="Group_656" data-name="Group 656" transform="translate(38.09 40.953)">
            <path id="Path_1178" data-name="Path 1178" d="M917.207,323.208a1.708,1.708,0,1,0,0,2.416A1.708,1.708,0,0,0,917.207,323.208Z" transform="translate(-914.29 -322.707)" fill="#fff"/>
          </g>
          <g id="Group_657" data-name="Group 657" transform="translate(21.61 61.174)">
            <path id="Path_1179" data-name="Path 1179" d="M852.044,401.736a1.113,1.113,0,1,0,0,1.573A1.113,1.113,0,0,0,852.044,401.736Z" transform="translate(-850.145 -401.41)" fill="#fff"/>
          </g>
          <g id="Group_658" data-name="Group 658" transform="translate(6.437 57.574)">
            <path id="Path_1180" data-name="Path 1180" d="M794.572,388a2.04,2.04,0,1,0,0,2.886A2.04,2.04,0,0,0,794.572,388Z" transform="translate(-791.089 -387.398)" fill="#fff"/>
          </g>
          <g id="Group_659" data-name="Group 659" transform="translate(11.346 46.338)">
            <path id="Path_1181" data-name="Path 1181" d="M811.635,343.914a.842.842,0,1,0,0,1.192A.842.842,0,0,0,811.635,343.914Z" transform="translate(-810.197 -343.667)" fill="#fff"/>
          </g>
          <g id="Group_660" data-name="Group 660" transform="translate(0 30.015)">
            <path id="Path_1182" data-name="Path 1182" d="M767.22,280.335a.7.7,0,1,0,0,.983A.7.7,0,0,0,767.22,280.335Z" transform="translate(-766.034 -280.131)" fill="#fff"/>
          </g>
          <g id="Group_661" data-name="Group 661" transform="translate(58.291 15.723)">
            <path id="Path_1183" data-name="Path 1183" d="M994.712,224.812a1.051,1.051,0,1,0,0,1.486A1.051,1.051,0,0,0,994.712,224.812Z" transform="translate(-992.918 -224.504)" fill="#fff"/>
          </g>
          <g id="Group_662" data-name="Group 662" transform="translate(14.735 35.911)">
            <ellipse id="Ellipse_35" data-name="Ellipse 35" cx="1.275" cy="1.275" rx="1.275" ry="1.275" fill="#fff"/>
          </g>
          <g id="Group_663" data-name="Group 663" transform="translate(35.173 54.991)">
            <ellipse id="Ellipse_36" data-name="Ellipse 36" cx="3.091" cy="3.091" rx="3.091" ry="3.091" fill="#fff"/>
          </g>
        </g>
        <g id="Group_665" data-name="Group 665" transform="translate(190.61 25.578)">
          <path id="Path_1184" data-name="Path 1184" d="M895.017,262.863l-1.758,8.982,8.868-3.218Z" transform="translate(-893.259 -262.863)" fill="#fff"/>
        </g>
        <g id="Group_690" data-name="Group 690" transform="translate(21.404 17.538)">
          <path id="Path_1196" data-name="Path 1196" d="M321.9,406.043a87.237,87.237,0,1,1,61.686-25.551A86.666,86.666,0,0,1,321.9,406.043Zm0-173.7a86.466,86.466,0,1,0,61.141,25.325A85.9,85.9,0,0,0,321.9,232.339Z" transform="translate(-234.659 -231.568)" fill="#fff"/>
        </g>
        <g id="c" transform="translate(109.556 4.67)">
          <path id="Path_1197" data-name="Path 1197" d="M600,413.513v-2.055a96.5,96.5,0,1,0,0-192.991v-2.055a98.551,98.551,0,1,1,0,197.1Z" transform="translate(-600 -216.412)" fill="#fff"/>
        </g>
        <g id="Group_692" data-name="Group 692" transform="translate(203.218 48.955)">
          <path id="Path_1198" data-name="Path 1198" d="M956.213,356.992l-5.874,2.733-2.733-5.874-2.132.991,2.733,5.874-5.874,2.733.992,2.132,5.874-2.733,2.733,5.874,2.132-.992-2.733-5.874,5.875-2.733Z" transform="translate(-942.333 -353.85)" fill="#fff"/>
        </g>
        <g id="Group_693" data-name="Group 693" transform="translate(212.617 30.182)">
          <path id="Path_1199" data-name="Path 1199" d="M978.943,289.21a2.081,2.081,0,0,1,3.771-1.624,1.481,1.481,0,0,0,2.7-1.162,2.081,2.081,0,0,1,3.771-1.624,1.481,1.481,0,0,0,2.7-1.161,2.081,2.081,0,0,1,3.771-1.624,1.481,1.481,0,0,0,2.7-1.162l.509-.071a1.991,1.991,0,0,1-3.607,1.554,1.571,1.571,0,0,0-2.861,1.232,1.99,1.99,0,0,1-3.607,1.554,1.571,1.571,0,0,0-2.861,1.232,1.991,1.991,0,0,1-3.607,1.554,1.571,1.571,0,0,0-2.861,1.232Z" transform="translate(-978.916 -280.782)" fill="#fff"/>
        </g>
        <g id="Group_694" data-name="Group 694" transform="translate(176.564 20.143)">
          <path id="Path_1200" data-name="Path 1200" d="M841.748,248.033a3.163,3.163,0,1,1,2.237-.926A3.142,3.142,0,0,1,841.748,248.033Zm0-6.069a2.906,2.906,0,1,0,2.055.851A2.887,2.887,0,0,0,841.748,241.964Z" transform="translate(-838.585 -241.707)" fill="#fff"/>
        </g>
        <g id="Group_695" data-name="Group 695" transform="translate(21.674 151.339)">
          <rect id="Rectangle_184" data-name="Rectangle 184" width="6.971" height="6.972" transform="translate(0 6.195) rotate(-62.702)" fill="#fff"/>
        </g>
        <g id="Group_696" data-name="Group 696" transform="translate(7.801 208.964)">
          <path id="Path_1201" data-name="Path 1201" d="M186.475,979.813l1.076-2.456-1.605-.7-1.076,2.456-2.456-1.076-.7,1.605,2.456,1.076-1.076,2.456,1.605.7,1.076-2.456,2.456,1.076.7-1.605Z" transform="translate(-181.71 -976.654)" fill="#fff"/>
        </g>
        <g id="Group_697" data-name="Group 697" transform="translate(37.169 188.153)">
          <path id="Path_1202" data-name="Path 1202" d="M307.582,897.351l-11.563-1.7,4.639,11.117Z" transform="translate(-296.019 -895.65)" fill="#fff"/>
        </g>
        <g id="Group_698" data-name="Group 698" transform="translate(61.225 191.507)">
          <path id="Path_1203" data-name="Path 1203" d="M393.206,915.808l-3.552-3.552,3.552-3.552,3.552,3.552Zm-3.189-3.552,3.189,3.189,3.189-3.189-3.189-3.189Z" transform="translate(-389.654 -908.704)" fill="#fff"/>
        </g>
        <g id="Group_699" data-name="Group 699" transform="translate(0 173.058)">
          <rect id="Rectangle_185" data-name="Rectangle 185" width="26.127" height="0.729" transform="translate(0.168 0) rotate(13.297)" fill="#fff"/>
        </g>
        <g id="Group_700" data-name="Group 700" transform="translate(8.418 180.823)">
          <path id="Path_1204" data-name="Path 1204" d="M189.577,878.054a5.466,5.466,0,1,1,5.466-5.466A5.472,5.472,0,0,1,189.577,878.054Zm0-10.675a5.209,5.209,0,1,0,5.209,5.209A5.215,5.215,0,0,0,189.577,867.379Z" transform="translate(-184.111 -867.122)" fill="#fff"/>
        </g>
        <g id="Group_701" data-name="Group 701" transform="translate(30.311 171.818)">
          <ellipse id="Ellipse_38" data-name="Ellipse 38" cx="1.688" cy="1.688" rx="1.688" ry="1.688" fill="#fff"/>
        </g>
        <g id="Group_702" data-name="Group 702" transform="translate(30.288 203.638)">
          <ellipse id="Ellipse_39" data-name="Ellipse 39" cx="1.128" cy="1.128" rx="1.128" ry="1.128" fill="#fff"/>
        </g>
      </g>
    </g>
  </g>
</svg>
