<svg xmlns="http://www.w3.org/2000/svg" width="17" height="17" viewBox="0 0 17 17">
  <g id="flags" transform="translate(0)">
    <path id="Path_113" data-name="Path 113" d="M0,92.494V104.48a.5.5,0,0,0,.5.5H2.49a.5.5,0,0,0,.5-.5V92.494a1.494,1.494,0,1,0-2.988,0Zm0,0" transform="translate(0 -87.979)" fill="#fff"/>
    <path id="Path_114" data-name="Path 114" d="M2.988,1.527A1.525,1.525,0,0,0,1.494,0,1.525,1.525,0,0,0,0,1.527a1.494,1.494,0,0,0,2.988,0Zm0,0" fill="#fff"/>
    <path id="Path_115" data-name="Path 115" d="M127.851,215.527c-3.593,0-4.23-2.075-7.851-1.6v2.983c4.619-.532,5.844,2.971,10.523,1.1l2.493-1V214.1c-2.211.885-3.29,1.428-5.164,1.428Zm0,0" transform="translate(-116.016 -206.756)" fill="#fff"/>
    <path id="Path_116" data-name="Path 116" d="M127.851,335.53c-3.593,0-4.23-2.075-7.851-1.6v2.49c3.614-.474,4.249,1.6,7.851,1.6a11.815,11.815,0,0,0,4.852-1.3.5.5,0,0,0,.313-.462V334.1c-2.211.885-3.29,1.428-5.164,1.428Zm0,0" transform="translate(-116.016 -322.774)" fill="#fff"/>
    <path id="Path_117" data-name="Path 117" d="M132.8,109.64a.5.5,0,0,0-.464-.05l-1.81.724c-4.783,1.916-5.89-1.63-10.523-1.1v2.49c4.594-.53,5.759,3.005,10.523,1.1l2.493-1v-1.754A.5.5,0,0,0,132.8,109.64Zm0,0" transform="translate(-116.015 -105.537)" fill="#fff"/>
  </g>
</svg>
