<svg xmlns="http://www.w3.org/2000/svg" width="14.292" height="24.5" viewBox="0 0 14.292 24.5">
  <g id="fire-symbol" transform="translate(-127.903)">
    <g id="Group_336" data-name="Group 336" transform="translate(127.903)">
      <path id="Path_107" data-name="Path 107" d="M129.5,19.627a10.306,10.306,0,0,0,1.81,1.954,16.824,16.824,0,0,0,2.209,1.595A25.661,25.661,0,0,0,136.07,24.5l-.016-.016.064.016a7.945,7.945,0,0,1-1.069-3.573,3.2,3.2,0,0,1,.391-1.539,4.87,4.87,0,0,1,1.021-1.3q.63-.574,1.4-1.148t1.531-1.236a12.884,12.884,0,0,0,1.4-1.4A5.934,5.934,0,0,0,141.8,12.5a6.554,6.554,0,0,0,.391-2.3,9.589,9.589,0,0,0-.439-2.935,8.913,8.913,0,0,0-1.156-2.4,10.277,10.277,0,0,0-1.811-1.954,16.8,16.8,0,0,0-2.209-1.595A25.656,25.656,0,0,0,134.028,0l.016.016L134,0a8.188,8.188,0,0,1,1.052,3.573,3.2,3.2,0,0,1-.391,1.539,4.888,4.888,0,0,1-1.021,1.3q-.63.574-1.4,1.148T130.71,8.8a12.891,12.891,0,0,0-1.4,1.4,5.933,5.933,0,0,0-1.021,1.794,6.554,6.554,0,0,0-.391,2.3,9.58,9.58,0,0,0,.438,2.935A8.909,8.909,0,0,0,129.5,19.627Z" transform="translate(-127.903)" fill="#fff"/>
    </g>
  </g>
</svg>
