<svg xmlns="http://www.w3.org/2000/svg" width="30.46" height="19.765" viewBox="0 0 30.46 19.765">
  <g id="video-camera" transform="translate(-6.4 -26.8)">
    <path id="Path_110" data-name="Path 110" d="M30.044,26.8H7.475A1.08,1.08,0,0,0,6.4,27.875V45.49a1.08,1.08,0,0,0,1.075,1.075h22.57a1.08,1.08,0,0,0,1.075-1.075V40.4l3.906,3.906a1.05,1.05,0,0,0,.76.315,1.187,1.187,0,0,0,.419-.079,1.064,1.064,0,0,0,.655-1V29.788a1.12,1.12,0,0,0-.655-1,1.047,1.047,0,0,0-1.153.236l-3.906,3.906V27.875a1.1,1.1,0,0,0-1.1-1.075ZM28.97,35.529v8.913H8.523V28.923H28.97Zm5.741-3.146v8.624l-3.591-3.591V36Z" transform="translate(0 0)" fill="#334856"/>
  </g>
</svg>
