<svg xmlns="http://www.w3.org/2000/svg" width="232.582" height="216.185" viewBox="0 0 232.582 216.185">
  <g id="_3-share" data-name="3-share" transform="translate(-74.084 -86.936)">
    <g id="CIRCLES1" transform="translate(95.084 104)">
      <ellipse id="Ellipse_34" data-name="Ellipse 34" cx="87.295" cy="87.295" rx="87.295" ry="87.295" transform="translate(0 0)" fill="#fff"/>
    </g>
    <g id="networking" transform="translate(125.083 134)">
      <path id="Path_1227" data-name="Path 1227" d="M112.186,28.186V8.578c0-4.617-5.034-8.236-11.46-8.236H74.595a2.8,2.8,0,0,0-3.021,2.589,19.351,19.351,0,0,0,.609,5.653,52.061,52.061,0,0,0-29.217-.432,6.441,6.441,0,0,0-2.837-4.695V2.58A2.767,2.767,0,0,0,37.157,0H12.007C5.786,0,.915,3.589.915,8.17V21.036c0,1.881,1.627,3.4,3.842,3.714v1.687a7.678,7.678,0,0,0,.415,14.356,14.5,14.5,0,0,0,1.791,3.97A51.882,51.882,0,0,0,5.309,57.8,51.188,51.188,0,0,0,20.4,94.241a51.829,51.829,0,0,0,10.28,7.986,18.358,18.358,0,0,1-2.673,2.346,2.2,2.2,0,0,0-.639,2.844c2.5,4.528,8.107,8.189,15.006,8.189H71.308c6.886,0,12.505-3.658,15.006-8.19a2.2,2.2,0,0,0-.643-2.843A18.332,18.332,0,0,1,83,102.224a51.56,51.56,0,0,0,23.986-56.378,15.127,15.127,0,0,0,2.1-4.312,7.674,7.674,0,0,0,3.1-13.347ZM4.757,36.628a4.239,4.239,0,0,1,0-6.182ZM43,11.724a48.164,48.164,0,0,1,30.558.966c.273.63.587,1.274.94,1.922v4.894A42.16,42.16,0,0,0,43,17.964ZM39.814,23.887h.6a2.591,2.591,0,0,0,2.567-2.269,38.707,38.707,0,0,1,31.518,1.7v3.657a7.678,7.678,0,0,0,.415,14.356c2.165,7.957,12.643,14.206,17.112,14.206a10.185,10.185,0,0,0,3.445-.772A38.711,38.711,0,0,1,79.532,89.193a7.682,7.682,0,0,0-2.4-4.052,3.417,3.417,0,0,0,.76-2.157V72.241A14.381,14.381,0,0,0,63.744,57.668H49.938c-7.287,0-14.146,5.805-14.146,15.161,0,2.766,0,10.418,0,11.387a7.716,7.716,0,0,0-3.28,3.726A38.7,38.7,0,0,1,18.093,57.8q0-1.925.185-3.8a11.069,11.069,0,0,0,4.008,1c4.526,0,14.792-6.215,17.058-14a7.679,7.679,0,0,0,.47-14.789ZM74.5,30.982v6.182A4.24,4.24,0,0,1,74.5,30.982ZM74.085,94.62V87.153A4.261,4.261,0,0,1,74.085,94.62ZM39.814,29.957a4.248,4.248,0,0,1,0,7.161Zm-.47-22.305c.295.7.233-.4.233,12.811H35.545a3.016,3.016,0,0,1-3.011-3.011V16.169a24.341,24.341,0,0,0,6.81-8.517ZM5.615,21.388a1.877,1.877,0,0,1-1.276-.418V8.17c0-2.29,2.778-4.262,6.319-4.668,1.242-.142.4-.05,26.047-.078,0,.9,0,.7-.005.907-.178,3.59-4.681,7.976-7.59,10.163C17.992,22.876,7.177,21.172,5.615,21.388Zm2.566,3.424a36.889,36.889,0,0,0,10.2-1.3,37.824,37.824,0,0,0,10.842-4.873,6.451,6.451,0,0,0,3.5,4.6,7.478,7.478,0,0,0,3.673.657v13.9c0,7.086-10.56,13.79-14.1,13.79-2.938,0-12.078-5.273-13.806-11.644-.191-.69-.2-2.031-.3-15.119ZM8.733,57.8A48.127,48.127,0,0,1,9.7,48.16a28.122,28.122,0,0,0,5.321,4.164,42.166,42.166,0,0,0,16.962,39.53,7.66,7.66,0,0,0,2.3,4.574A17.57,17.57,0,0,1,32.8,99.46,48.135,48.135,0,0,1,8.733,57.8Zm33.642,54.379a13.94,13.94,0,0,1-11.44-5.534,21.1,21.1,0,0,0,4.877-5.538,4.123,4.123,0,0,0,6.67,2.814c3.2,3.946,8.572,7.374,12.439,8.257Zm1.657-11.94V87.089A17.255,17.255,0,0,0,57.948,85.92a1.712,1.712,0,0,0-1.634-3.009,13.988,13.988,0,0,1-6.656,1.7c-4.3,0-4.876-1.63-6.985-.774a3.274,3.274,0,0,0-2.064,3.045c0,14.651.043,13.911-.072,14.133v0a.7.7,0,0,1-1.318-.31c0-11.725,0-26.37,0-28.806A10.99,10.99,0,0,1,49.937,61.093H63.744A10.955,10.955,0,0,1,74.467,72.241v10.7a5.511,5.511,0,0,1-4.915-3.26l-1.6-3.584a3.1,3.1,0,0,0-5.729.188,11.583,11.583,0,0,1-1.4,2.652,1.712,1.712,0,1,0,2.8,1.97A15.216,15.216,0,0,0,65.141,78.2c.845,1.223,1.345,5.226,5.52,7.257v9.681c0,7.234-10.726,13.818-14.132,13.818-2.851,0-9.558-4.07-12.5-8.719Zm27.275,11.94H58.136c4.889-1.114,13.376-6.711,15.462-13.77A7.646,7.646,0,0,0,76.108,97.4a21.013,21.013,0,0,0,6.641,9.25,13.922,13.922,0,0,1-11.441,5.532Zm9.58-12.725A17.539,17.539,0,0,1,78.8,94.522a7.267,7.267,0,0,0,.452-1.011,42.158,42.158,0,0,0,19.5-40.337,28.584,28.584,0,0,0,5.4-4.04A48.117,48.117,0,0,1,80.888,99.457Zm22.361-54.349c-3.663,4.369-9.339,7-11.223,7-1.276,0-4.8-1.322-8.3-4.16-2.953-2.393-5.8-5.844-5.8-9.631V19.288a21.6,21.6,0,0,0,6.426,4.558,2.124,2.124,0,0,0,2.89-1.084c3.034,3.459,6.966,7.1,11.156,9.054a2.053,2.053,0,0,0,2.968-2.157,24.106,24.106,0,0,0,4.769,2.381c-.136,5.939.92,8.553-2.883,13.07Zm5.513-15.831a22.057,22.057,0,0,1-8.775-4.943,2.15,2.15,0,0,0-3.365.7,2.432,2.432,0,0,0,.151,1.888,46.188,46.188,0,0,1-9.777-9.915c-1.264-1.708-4.141-.606-3.753,1.479l.171.923a17.556,17.556,0,0,1-4.6-4.4A21.172,21.172,0,0,1,75,4.5V3.767h25.727c4.355,0,8.035,2.2,8.035,4.811Zm.795,8.377V32.941a2.237,2.237,0,0,0,1.722-.279,4.249,4.249,0,0,1-1.722,4.992Zm0,0" transform="translate(0)" fill="#33aab1"/>
      <path id="Path_1228" data-name="Path 1228" d="M437.768,142.877a1.871,1.871,0,0,0-1.2,1.55v0a1.532,1.532,0,0,0-.013.2,1.871,1.871,0,0,0,1.036,1.676,1.421,1.421,0,0,0,.2.086,1.837,1.837,0,0,0,.639.112,1.874,1.874,0,1,0-.657-3.629Zm0,0" transform="translate(-337.98 -110.523)" fill="#33aab1"/>
      <path id="Path_1229" data-name="Path 1229" d="M366.632,142.766a1.874,1.874,0,1,0,1.874,1.874A1.873,1.873,0,0,0,366.632,142.766Zm0,0" transform="translate(-282.397 -110.531)" fill="#33aab1"/>
      <path id="Path_1230" data-name="Path 1230" d="M357.556,114.667a15.85,15.85,0,0,0-2.792-.279.027.027,0,0,0-.02,0,8.9,8.9,0,0,0-4.331.894h0a1.721,1.721,0,1,0,1.544,3.061,4.461,4.461,0,0,1,1.9-.5c2.516-.22,3.333.647,4.369-.118a1.713,1.713,0,0,0-.664-3.054Zm0,0" transform="translate(-270.448 -88.553)" fill="#33aab1"/>
      <path id="Path_1231" data-name="Path 1231" d="M393.472,176.557a1.7,1.7,0,0,0-.861,1.482,1.892,1.892,0,1,1-3.785,0,1.712,1.712,0,1,0-3.424,0,5.317,5.317,0,0,0,10.633,0A1.711,1.711,0,0,0,393.472,176.557Zm0,0" transform="translate(-298.381 -136.512)" fill="#33aab1"/>
      <path id="Path_1232" data-name="Path 1232" d="M128.905,140.5a1.875,1.875,0,1,0,2.531,1.756A1.876,1.876,0,0,0,128.905,140.5Zm0,0" transform="translate(-98.86 -108.681)" fill="#33aab1"/>
      <path id="Path_1233" data-name="Path 1233" d="M119.272,115.677c1.317-.268,3.752-.4,4.906.325,1.938,1.219,4.112-1.892,1.239-3.214a12.1,12.1,0,0,0-6.841-.464,1.712,1.712,0,0,0,.7,3.353Zm0,0" transform="translate(-90.747 -86.747)" fill="#33aab1"/>
      <path id="Path_1234" data-name="Path 1234" d="M55.879,142.264a1.875,1.875,0,1,0,3.363-1.14,1.878,1.878,0,0,0-3.363,1.14Zm0,0" transform="translate(-43.261 -108.691)" fill="#33aab1"/>
      <path id="Path_1235" data-name="Path 1235" d="M48.012,115.647a1.713,1.713,0,0,0,.7-3.353c-2.228-.445-5.262-.477-7.262.683-.055.03-.109.062-.162.1a1.712,1.712,0,0,0,1.821,2.9c1.155-.725,3.6-.592,4.906-.325Zm0,0" transform="translate(-31.342 -86.717)" fill="#33aab1"/>
      <path id="Path_1236" data-name="Path 1236" d="M76.8,177.24a5.328,5.328,0,0,0,5.079,3.746c5.225,0,6.94-7.029,3.6-7.029a1.711,1.711,0,0,0-1.712,1.712,1.893,1.893,0,0,1-3.786,0c0-2.463-4.466-2.534-3.187,1.571Zm0,0" transform="translate(-59.276 -134.679)" fill="#33aab1"/>
      <path id="Path_1237" data-name="Path 1237" d="M238.188,422.586a1.712,1.712,0,0,0-1.712,1.712,1.448,1.448,0,0,1-2.9,0,1.712,1.712,0,1,0-3.424,0,4.872,4.872,0,1,0,9.744,0A1.711,1.711,0,0,0,238.188,422.586Zm0,0" transform="translate(-178.187 -327.169)" fill="#33aab1"/>
      <path id="Path_1238" data-name="Path 1238" d="M281.128,391.13A1.877,1.877,0,1,0,283.18,393,1.878,1.878,0,0,0,281.128,391.13Zm0,0" transform="translate(-216.341 -302.81)" fill="#33aab1"/>
      <path id="Path_1239" data-name="Path 1239" d="M273.475,374.485c2.426.055,2.3.795,3.322.795a1.709,1.709,0,0,0,1.452-.8,1.21,1.21,0,0,0,.073-.13,1.711,1.711,0,0,0-.612-2.231,5.876,5.876,0,0,0-1.326-.612,13.332,13.332,0,0,0-6.109-.167,1.712,1.712,0,0,0,.7,3.352A11.805,11.805,0,0,1,273.475,374.485Zm0,0" transform="translate(-208.192 -287.273)" fill="#33aab1"/>
      <path id="Path_1240" data-name="Path 1240" d="M207.731,392.038a1.876,1.876,0,1,0,3.483.968A1.873,1.873,0,0,0,207.731,392.038Zm0,0" transform="translate(-160.617 -302.817)" fill="#33aab1"/>
    </g>
    <g id="cc" transform="translate(74.085 86.936)">
      <g id="Group_754" data-name="Group 754" transform="translate(0 0)">
        <g id="Group_664" data-name="Group 664" transform="translate(157.924)">
          <g id="Group_649" data-name="Group 649" transform="translate(49.719 26.511)">
            <path id="Path_1171" data-name="Path 1171" d="M963.861,270.8a2.522,2.522,0,1,0-3.566,0A2.521,2.521,0,0,0,963.861,270.8Z" transform="translate(-959.556 -266.491)" fill="#fff"/>
          </g>
          <g id="Group_650" data-name="Group 650" transform="translate(36.15 10.177)">
            <path id="Path_1172" data-name="Path 1172" d="M910.1,203.495a1.968,1.968,0,1,0,0,2.784A1.968,1.968,0,0,0,910.1,203.495Z" transform="translate(-906.739 -202.918)" fill="#fff"/>
          </g>
          <g id="Group_651" data-name="Group 651" transform="translate(26.039)">
            <path id="Path_1173" data-name="Path 1173" d="M867.545,164.232a.543.543,0,1,0,0-.768A.543.543,0,0,0,867.545,164.232Z" transform="translate(-867.385 -163.304)" fill="#fff"/>
          </g>
          <g id="Group_652" data-name="Group 652" transform="translate(32.049 26.39)">
            <path id="Path_1174" data-name="Path 1174" d="M892.713,266.355a1.135,1.135,0,1,0,0,1.6A1.135,1.135,0,0,0,892.713,266.355Z" transform="translate(-890.776 -266.022)" fill="#fff"/>
          </g>
          <g id="Group_653" data-name="Group 653" transform="translate(17.727 18.315)">
            <path id="Path_1175" data-name="Path 1175" d="M836.418,234.832a.813.813,0,1,0,0,1.149A.813.813,0,0,0,836.418,234.832Z" transform="translate(-835.031 -234.594)" fill="#fff"/>
          </g>
          <g id="Group_654" data-name="Group 654" transform="translate(17.545 24.755)">
            <path id="Path_1176" data-name="Path 1176" d="M835.927,259.932a.938.938,0,1,0,0,1.326A.938.938,0,0,0,835.927,259.932Z" transform="translate(-834.325 -259.657)" fill="#fff"/>
          </g>
          <g id="Group_655" data-name="Group 655" transform="translate(25.13 43.893)">
            <path id="Path_1177" data-name="Path 1177" d="M866.62,334.624a1.625,1.625,0,1,0,0,2.3A1.625,1.625,0,0,0,866.62,334.624Z" transform="translate(-863.846 -334.148)" fill="#fff"/>
          </g>
          <g id="Group_656" data-name="Group 656" transform="translate(38.09 40.953)">
            <path id="Path_1178" data-name="Path 1178" d="M917.207,323.208a1.708,1.708,0,1,0,0,2.416A1.708,1.708,0,0,0,917.207,323.208Z" transform="translate(-914.29 -322.707)" fill="#fff"/>
          </g>
          <g id="Group_657" data-name="Group 657" transform="translate(21.61 61.174)">
            <path id="Path_1179" data-name="Path 1179" d="M852.044,401.736a1.113,1.113,0,1,0,0,1.573A1.113,1.113,0,0,0,852.044,401.736Z" transform="translate(-850.145 -401.41)" fill="#fff"/>
          </g>
          <g id="Group_658" data-name="Group 658" transform="translate(6.437 57.574)">
            <path id="Path_1180" data-name="Path 1180" d="M794.572,388a2.04,2.04,0,1,0,0,2.886A2.04,2.04,0,0,0,794.572,388Z" transform="translate(-791.089 -387.398)" fill="#fff"/>
          </g>
          <g id="Group_659" data-name="Group 659" transform="translate(11.346 46.338)">
            <path id="Path_1181" data-name="Path 1181" d="M811.635,343.914a.842.842,0,1,0,0,1.192A.842.842,0,0,0,811.635,343.914Z" transform="translate(-810.197 -343.667)" fill="#fff"/>
          </g>
          <g id="Group_660" data-name="Group 660" transform="translate(0 30.015)">
            <path id="Path_1182" data-name="Path 1182" d="M767.22,280.335a.7.7,0,1,0,0,.983A.7.7,0,0,0,767.22,280.335Z" transform="translate(-766.034 -280.131)" fill="#fff"/>
          </g>
          <g id="Group_661" data-name="Group 661" transform="translate(58.291 15.723)">
            <path id="Path_1183" data-name="Path 1183" d="M994.712,224.812a1.051,1.051,0,1,0,0,1.486A1.051,1.051,0,0,0,994.712,224.812Z" transform="translate(-992.918 -224.504)" fill="#fff"/>
          </g>
          <g id="Group_662" data-name="Group 662" transform="translate(14.735 35.911)">
            <ellipse id="Ellipse_35" data-name="Ellipse 35" cx="1.275" cy="1.275" rx="1.275" ry="1.275" fill="#fff"/>
          </g>
          <g id="Group_663" data-name="Group 663" transform="translate(35.173 54.991)">
            <ellipse id="Ellipse_36" data-name="Ellipse 36" cx="3.091" cy="3.091" rx="3.091" ry="3.091" fill="#fff"/>
          </g>
        </g>
        <g id="Group_665" data-name="Group 665" transform="translate(190.61 25.578)">
          <path id="Path_1184" data-name="Path 1184" d="M895.017,262.863l-1.758,8.982,8.868-3.218Z" transform="translate(-893.259 -262.863)" fill="#fff"/>
        </g>
        <g id="Group_690" data-name="Group 690" transform="translate(21.404 17.538)">
          <path id="Path_1196" data-name="Path 1196" d="M321.9,406.043a87.237,87.237,0,1,1,61.686-25.551A86.666,86.666,0,0,1,321.9,406.043Zm0-173.7a86.466,86.466,0,1,0,61.141,25.325A85.9,85.9,0,0,0,321.9,232.339Z" transform="translate(-234.659 -231.568)" fill="#fff"/>
        </g>
        <g id="c" transform="translate(109.556 4.67)">
          <path id="Path_1197" data-name="Path 1197" d="M600,413.513v-2.055a96.5,96.5,0,1,0,0-192.991v-2.055a98.551,98.551,0,1,1,0,197.1Z" transform="translate(-600 -216.412)" fill="#fff"/>
        </g>
        <g id="Group_692" data-name="Group 692" transform="translate(203.218 48.955)">
          <path id="Path_1198" data-name="Path 1198" d="M956.213,356.992l-5.874,2.733-2.733-5.874-2.132.991,2.733,5.874-5.874,2.733.992,2.132,5.874-2.733,2.733,5.874,2.132-.992-2.733-5.874,5.875-2.733Z" transform="translate(-942.333 -353.85)" fill="#fff"/>
        </g>
        <g id="Group_693" data-name="Group 693" transform="translate(212.617 30.182)">
          <path id="Path_1199" data-name="Path 1199" d="M978.943,289.21a2.081,2.081,0,0,1,3.771-1.624,1.481,1.481,0,0,0,2.7-1.162,2.081,2.081,0,0,1,3.771-1.624,1.481,1.481,0,0,0,2.7-1.161,2.081,2.081,0,0,1,3.771-1.624,1.481,1.481,0,0,0,2.7-1.162l.509-.071a1.991,1.991,0,0,1-3.607,1.554,1.571,1.571,0,0,0-2.861,1.232,1.99,1.99,0,0,1-3.607,1.554,1.571,1.571,0,0,0-2.861,1.232,1.991,1.991,0,0,1-3.607,1.554,1.571,1.571,0,0,0-2.861,1.232Z" transform="translate(-978.916 -280.782)" fill="#fff"/>
        </g>
        <g id="Group_694" data-name="Group 694" transform="translate(176.564 20.143)">
          <path id="Path_1200" data-name="Path 1200" d="M841.748,248.033a3.163,3.163,0,1,1,2.237-.926A3.142,3.142,0,0,1,841.748,248.033Zm0-6.069a2.906,2.906,0,1,0,2.055.851A2.887,2.887,0,0,0,841.748,241.964Z" transform="translate(-838.585 -241.707)" fill="#fff"/>
        </g>
        <g id="Group_695" data-name="Group 695" transform="translate(21.674 151.339)">
          <rect id="Rectangle_184" data-name="Rectangle 184" width="6.971" height="6.972" transform="translate(0 6.195) rotate(-62.702)" fill="#fff"/>
        </g>
        <g id="Group_696" data-name="Group 696" transform="translate(7.801 208.964)">
          <path id="Path_1201" data-name="Path 1201" d="M186.475,979.813l1.076-2.456-1.605-.7-1.076,2.456-2.456-1.076-.7,1.605,2.456,1.076-1.076,2.456,1.605.7,1.076-2.456,2.456,1.076.7-1.605Z" transform="translate(-181.71 -976.654)" fill="#fff"/>
        </g>
        <g id="Group_697" data-name="Group 697" transform="translate(37.169 188.153)">
          <path id="Path_1202" data-name="Path 1202" d="M307.582,897.351l-11.563-1.7,4.639,11.117Z" transform="translate(-296.019 -895.65)" fill="#fff"/>
        </g>
        <g id="Group_698" data-name="Group 698" transform="translate(61.225 191.507)">
          <path id="Path_1203" data-name="Path 1203" d="M393.206,915.808l-3.552-3.552,3.552-3.552,3.552,3.552Zm-3.189-3.552,3.189,3.189,3.189-3.189-3.189-3.189Z" transform="translate(-389.654 -908.704)" fill="#fff"/>
        </g>
        <g id="Group_699" data-name="Group 699" transform="translate(0 173.058)">
          <rect id="Rectangle_185" data-name="Rectangle 185" width="26.127" height="0.729" transform="translate(0.168 0) rotate(13.297)" fill="#fff"/>
        </g>
        <g id="Group_700" data-name="Group 700" transform="translate(8.418 180.823)">
          <path id="Path_1204" data-name="Path 1204" d="M189.577,878.054a5.466,5.466,0,1,1,5.466-5.466A5.472,5.472,0,0,1,189.577,878.054Zm0-10.675a5.209,5.209,0,1,0,5.209,5.209A5.215,5.215,0,0,0,189.577,867.379Z" transform="translate(-184.111 -867.122)" fill="#fff"/>
        </g>
        <g id="Group_701" data-name="Group 701" transform="translate(30.311 171.818)">
          <ellipse id="Ellipse_38" data-name="Ellipse 38" cx="1.688" cy="1.688" rx="1.688" ry="1.688" fill="#fff"/>
        </g>
        <g id="Group_702" data-name="Group 702" transform="translate(30.288 203.638)">
          <ellipse id="Ellipse_39" data-name="Ellipse 39" cx="1.128" cy="1.128" rx="1.128" ry="1.128" fill="#fff"/>
        </g>
      </g>
    </g>
  </g>
</svg>
