<svg xmlns="http://www.w3.org/2000/svg" width="14" height="18.667" viewBox="0 0 14 18.667">
  <g id="lock" transform="translate(-64)">
    <g id="Group_6" data-name="Group 6" transform="translate(64)">
      <path id="Path_8" data-name="Path 8" d="M77.611,7H76.444V5.444a5.444,5.444,0,1,0-10.889,0V7H64.389A.389.389,0,0,0,64,7.389v9.722a1.557,1.557,0,0,0,1.556,1.556H76.444A1.557,1.557,0,0,0,78,17.111V7.389A.389.389,0,0,0,77.611,7Zm-5.447,8.124a.389.389,0,0,1-.387.432H70.222a.389.389,0,0,1-.387-.432l.245-2.206a1.539,1.539,0,0,1-.636-1.251,1.556,1.556,0,1,1,3.111,0,1.539,1.539,0,0,1-.636,1.251ZM74.111,7H67.889V5.444a3.111,3.111,0,1,1,6.222,0Z" transform="translate(-64)" fill="#fff"/>
    </g>
  </g>
</svg>
