<svg xmlns="http://www.w3.org/2000/svg" width="23.062" height="18.701" viewBox="0 0 23.062 18.701">
  <g id="chat" transform="translate(0 -5.299)">
    <path id="Union_1" data-name="Union 1" d="M7.151,13.683a.4.4,0,0,0-.34-.192H1.534A1.535,1.535,0,0,1,0,11.958V1.534A1.535,1.535,0,0,1,1.534,0h15.45a1.535,1.535,0,0,1,1.534,1.534V11.958a1.536,1.536,0,0,1-1.534,1.534H11.573a.4.4,0,0,0-.34.192L9.192,17.061Z" transform="translate(0 5.299)" fill="#fff"/>
    <path id="Path_94" data-name="Path 94" d="M204.515,66.617h-2.443v8.173a2.332,2.332,0,0,1-2.329,2.329h-5.187l-.79,1.308h1.772a.4.4,0,0,1,.34.192l1.761,2.914L199.4,78.62a.4.4,0,0,1,.34-.192h4.775a1.308,1.308,0,0,0,1.306-1.306v-9.2a1.308,1.308,0,0,0-1.306-1.306Zm0,0" transform="translate(-182.759 -57.534)" fill="#fff"/>
  </g>
</svg>
