<svg xmlns="http://www.w3.org/2000/svg" width="18.715" height="16.041" viewBox="0 0 18.715 16.041">
  <g id="comment-white-oval-bubble" transform="translate(0 0)">
    <path id="Path_102" data-name="Path 102" d="M17.461,39.875a8.464,8.464,0,0,0-3.4-2.433,12.14,12.14,0,0,0-4.7-.893,12.14,12.14,0,0,0-4.7.893,8.463,8.463,0,0,0-3.4,2.433A5.208,5.208,0,0,0,0,43.233a5.067,5.067,0,0,0,.945,2.935,7.667,7.667,0,0,0,2.585,2.3,6.666,6.666,0,0,1-.272.794q-.157.376-.282.616a4.239,4.239,0,0,1-.339.532q-.214.293-.324.413l-.36.4q-.25.277-.324.36a.735.735,0,0,0-.084.094l-.073.088-.063.094c-.035.052-.051.085-.047.1a.277.277,0,0,1-.021.1.138.138,0,0,0,.005.125v.01a.532.532,0,0,0,.167.287.418.418,0,0,0,.282.109h.052a7.875,7.875,0,0,0,1.191-.23,11.413,11.413,0,0,0,4.8-2.527,14.28,14.28,0,0,0,1.514.084,12.137,12.137,0,0,0,4.7-.893,8.464,8.464,0,0,0,3.4-2.433,5.124,5.124,0,0,0,0-6.715ZM16.286,45.9a7.5,7.5,0,0,1-2.945,1.958,10.834,10.834,0,0,1-3.984.726A11.791,11.791,0,0,1,8,48.5l-.6-.062-.449.4a10.3,10.3,0,0,1-2.872,1.786,7.493,7.493,0,0,0,.731-1.8l.282-1L4.188,47.3a6.369,6.369,0,0,1-2.1-1.833,3.811,3.811,0,0,1-.747-2.23A3.947,3.947,0,0,1,2.428,40.57a7.5,7.5,0,0,1,2.945-1.958,10.83,10.83,0,0,1,3.984-.726,10.829,10.829,0,0,1,3.984.726,7.5,7.5,0,0,1,2.945,1.958,3.8,3.8,0,0,1,0,5.326Z" transform="translate(0 -36.549)" fill="#606970"/>
  </g>
</svg>
