<svg xmlns="http://www.w3.org/2000/svg" width="257.031" height="67.159" viewBox="0 0 257.031 67.159">
  <g id="discover_logo" data-name="discover logo" transform="translate(-58.313 -88)">
    <path id="discover_logo-2" data-name="discover logo" d="M3.81,2.405,3.6,18.237a7.9,7.9,0,0,0,.923,3.831,2.719,2.719,0,0,0,.254.438,12.516,12.516,0,0,0,10.893,6.208H30.95L28.643,11.867a2.55,2.55,0,0,1,2.077.923l4.154,9.693h1.962v1.385H35.8l.808,2.423,2.769.115V28.6H37.643l2.308,4.27,11.77.577c3.693.923,4.385,2.493,4.385,2.493-1.039,2.262-4.27,2.816-4.27,2.816l-12.116.462-2.077,4.039,1.846.346-.231,2.308-2.423-.115L35.566,48.1l1.385.115.115,1.385-2.192.115L31.412,58.14c-.923,2.539-2.885,1.962-2.885,1.962L30.6,43.6H14.68a11.43,11.43,0,0,0-4.639.946,10.936,10.936,0,0,0-6.347,8.17V69.5l27.071.069a37.238,37.238,0,0,0,10.939-1.592C50.983,65.133,66.1,57.379,65.776,35.639,65.546,19.9,57.029,11.521,49,7.113a39.073,39.073,0,0,0-18.74-4.708Z" transform="translate(54.712 85.595)" fill="#d97d54"/>
    <text id="iscover_" data-name="iscover " transform="translate(128.344 138.653)" fill="#fff" font-size="43" font-family="TitanOne, Titan One"><tspan x="0" y="0">iscover </tspan></text>
  </g>
</svg>
