<svg xmlns="http://www.w3.org/2000/svg" xmlns:xlink="http://www.w3.org/1999/xlink" width="116" height="116" viewBox="0 0 116 116">
  <defs>
    <clipPath id="clip-path">
      <circle id="Ellipse_10" data-name="Ellipse 10" cx="58" cy="58" r="58" transform="translate(122 87)" fill="#fff"/>
    </clipPath>
  </defs>
  <g id="upload_yourphto" data-name="upload yourphto" transform="translate(-122 -87)">
    <circle id="Ellipse_9" data-name="Ellipse 9" cx="58" cy="58" r="58" transform="translate(122 87)" fill="#fff"/>
    <g id="man-user" transform="translate(104.105 116.245)">
      <path id="Path_27" data-name="Path 27" d="M122.27,43.081c9.794,0,17.734-9.644,17.734-21.54S137.4,0,122.27,0s-17.735,9.644-17.735,21.541S112.475,43.081,122.27,43.081Z" transform="translate(-46.875)" fill="#9f9f9f"/>
      <g id="Mask_Group_3" data-name="Mask Group 3" transform="translate(-104.105 -116.245)" clip-path="url(#clip-path)">
        <path id="Path_30" data-name="Path 30" d="M108.862,208.107c-.328-20.724-3.035-26.629-23.747-30.367,0,0-2.915,3.715-9.711,3.715s-9.711-3.715-9.711-3.715c-20.486,3.7-23.357,9.515-23.734,29.694-.031,1.648-.045,1.734-.051,1.543,0,.358,0,1.021,0,2.177,0,0,4.931,9.94,33.494,9.94s33.494-9.94,33.494-9.94c0-.743,0-1.259,0-1.61A13.336,13.336,0,0,1,108.862,208.107Z" transform="translate(104.095 -16.761)" fill="#9f9f9f"/>
      </g>
    </g>
  </g>
</svg>
