<svg xmlns="http://www.w3.org/2000/svg" width="27.685" height="22.47" viewBox="0 0 27.685 22.47">
  <g id="photo-camera" transform="translate(218 -2.15)">
    <g id="Group_337" data-name="Group 337" transform="translate(-218 2.15)">
      <path id="Path_111" data-name="Path 111" d="M0,53.026V65.242A3.381,3.381,0,0,0,3.379,68.62H24.307a3.381,3.381,0,0,0,3.379-3.379V53.026a3.217,3.217,0,0,0-3.215-3.215h-4.5l-.107-.469a4.107,4.107,0,0,0-4.023-3.192H11.837a4.116,4.116,0,0,0-4.023,3.192l-.107.469H3.215A3.22,3.22,0,0,0,0,53.026ZM8.26,51.2a.689.689,0,0,0,.672-.537l.232-1.006a2.733,2.733,0,0,1,2.672-2.119h4.006a2.733,2.733,0,0,1,2.672,2.119l.232,1.006a.7.7,0,0,0,.672.537h5.046A1.83,1.83,0,0,1,26.3,53.026V65.242A1.994,1.994,0,0,1,24.3,67.236H3.379a1.994,1.994,0,0,1-1.994-1.994V53.026A1.83,1.83,0,0,1,3.215,51.2Z" transform="translate(0 -46.15)" fill="#334856"/>
      <circle id="Ellipse_8" data-name="Ellipse 8" cx="1.028" cy="1.028" r="1.028" transform="translate(4.168 7.004)" fill="#334856"/>
      <path id="Path_112" data-name="Path 112" d="M148.55,188.05a6.45,6.45,0,1,0-6.45-6.45A6.46,6.46,0,0,0,148.55,188.05Zm0-11.364a4.914,4.914,0,1,1-4.914,4.914A4.922,4.922,0,0,1,148.55,176.686Z" transform="translate(-134.707 -168.717)" fill="#334856"/>
    </g>
  </g>
</svg>
