<svg id="global" xmlns="http://www.w3.org/2000/svg" width="28.852" height="28.794" viewBox="0 0 28.852 28.794">
  <path id="Path_9" data-name="Path 9" d="M231.816,350.562c2.206-.313,4.14-2.616,5.357-6.017a26.189,26.189,0,0,0-5.357-.631Zm0,0" transform="translate(-216.874 -321.768)" fill="#334856"/>
  <path id="Path_10" data-name="Path 10" d="M279.948,362.837c.13-.038.26-.076.389-.118.109-.035.216-.073.323-.11.127-.044.253-.089.379-.137.107-.041.214-.084.32-.127l.367-.155c.106-.047.211-.1.316-.144s.238-.113.355-.173.206-.106.309-.161.23-.125.344-.19.2-.117.3-.177l.334-.206c.1-.063.2-.127.3-.193s.216-.15.323-.226.191-.137.285-.206.209-.162.313-.245.184-.146.274-.221.2-.174.3-.263.176-.155.261-.235.194-.187.29-.281.167-.163.249-.247l.045-.049a17.33,17.33,0,0,0-3.533-1.36,12.8,12.8,0,0,1-3.3,5.351l.125-.03C279.732,362.9,279.84,362.869,279.948,362.837Zm0,0" transform="translate(-261.481 -334.584)" fill="#334856"/>
  <path id="Path_11" data-name="Path 11" d="M342.782,231.684H336.6a26.744,26.744,0,0,1-1.041,7.134,17.932,17.932,0,0,1,3.913,1.557,14.406,14.406,0,0,0,3.31-8.691Zm0,0" transform="translate(-313.931 -216.771)" fill="#334856"/>
  <path id="Path_12" data-name="Path 12" d="M231.816,115.822h6.7a25.8,25.8,0,0,0-1.015-6.88,27.16,27.16,0,0,1-5.681.678Zm0,0" transform="translate(-216.874 -101.941)" fill="#334856"/>
  <path id="Path_13" data-name="Path 13" d="M231.816.316V6.964a26.206,26.206,0,0,0,5.357-.631c-1.217-3.4-3.151-5.7-5.357-6.017Zm0,0" transform="translate(-216.874 -0.316)" fill="#334856"/>
  <path id="Path_14" data-name="Path 14" d="M231.816,237.886a27.178,27.178,0,0,1,5.681.678,25.8,25.8,0,0,0,1.015-6.88h-6.7Zm0,0" transform="translate(-216.874 -216.771)" fill="#334856"/>
  <path id="Path_15" data-name="Path 15" d="M339.472,80.844a17.935,17.935,0,0,1-3.913,1.557,26.741,26.741,0,0,1,1.041,7.134h6.183a14.411,14.411,0,0,0-3.31-8.691Zm0,0" transform="translate(-313.93 -75.653)" fill="#334856"/>
  <path id="Path_16" data-name="Path 16" d="M286.29,10.787l-.044-.048c-.082-.084-.166-.165-.249-.247s-.191-.19-.29-.281-.174-.155-.261-.234-.2-.178-.3-.264-.181-.147-.271-.22-.209-.167-.315-.246-.188-.138-.282-.206-.216-.155-.326-.229-.194-.128-.292-.191-.223-.142-.336-.21-.2-.119-.3-.176-.231-.13-.347-.192-.206-.108-.309-.159c-.119-.06-.238-.118-.361-.174q-.155-.074-.314-.144c-.122-.054-.245-.1-.369-.155-.106-.043-.212-.086-.319-.127-.125-.048-.252-.093-.379-.136-.107-.038-.215-.075-.323-.111-.129-.042-.258-.08-.39-.118-.107-.031-.215-.063-.324-.092-.042-.011-.084-.02-.126-.031a12.8,12.8,0,0,1,3.3,5.351,17.3,17.3,0,0,0,3.537-1.361Zm0,0" transform="translate(-261.445 -6.379)" fill="#334856"/>
  <path id="Path_17" data-name="Path 17" d="M0,89.535H6.183A26.751,26.751,0,0,1,7.223,82.4,17.911,17.911,0,0,1,3.31,80.844,14.407,14.407,0,0,0,0,89.535Zm0,0" transform="translate(0 -75.653)" fill="#334856"/>
  <path id="Path_18" data-name="Path 18" d="M138.052,350.562v-6.648a26.207,26.207,0,0,0-5.357.631C133.912,347.945,135.846,350.248,138.052,350.562Zm0,0" transform="translate(-124.142 -321.768)" fill="#334856"/>
  <path id="Path_19" data-name="Path 19" d="M118.617,231.684h-6.7a25.787,25.787,0,0,0,1.015,6.88,27.143,27.143,0,0,1,5.681-.678Zm0,0" transform="translate(-104.707 -216.771)" fill="#334856"/>
  <path id="Path_20" data-name="Path 20" d="M138.052.316c-2.206.313-4.141,2.616-5.357,6.017a26.171,26.171,0,0,0,5.357.631Zm0,0" transform="translate(-124.142 -0.316)" fill="#334856"/>
  <path id="Path_21" data-name="Path 21" d="M118.618,109.619a27.16,27.16,0,0,1-5.681-.678,25.785,25.785,0,0,0-1.015,6.88h6.7Zm0,0" transform="translate(-104.708 -101.94)" fill="#334856"/>
  <path id="Path_22" data-name="Path 22" d="M69.018,6.789l-.125.03c-.109.029-.217.062-.326.093-.129.038-.258.076-.388.117-.11.036-.217.073-.325.111-.126.045-.253.089-.377.136-.108.041-.214.084-.321.128l-.367.155c-.106.047-.211.1-.316.145s-.238.113-.355.173-.206.106-.309.161-.23.125-.344.19-.2.117-.3.177-.223.137-.333.206-.2.127-.3.193-.216.15-.323.226-.191.137-.285.206-.206.162-.312.244-.184.146-.274.222-.2.173-.3.261-.177.155-.263.236-.193.186-.289.28-.168.163-.249.247c-.015.016-.029.033-.045.049a17.312,17.312,0,0,0,3.533,1.36,12.791,12.791,0,0,1,3.294-5.348Zm0,0" transform="translate(-58.183 -6.372)" fill="#334856"/>
  <path id="Path_23" data-name="Path 23" d="M62.52,359.217c.1.094.191.19.29.282s.174.155.262.234.2.178.3.264.18.147.271.22.206.167.315.247c.093.07.187.137.282.206s.217.155.326.229.194.128.292.191.223.142.336.21.2.119.3.176.231.13.347.192.206.108.309.159c.119.06.238.118.361.174q.155.073.314.143c.122.054.245.1.369.155.106.043.212.086.319.127.125.048.252.093.379.137.107.038.215.075.323.11.129.042.258.08.39.118.107.032.215.063.323.092.042.011.084.02.126.031a12.8,12.8,0,0,1-3.3-5.351,17.307,17.307,0,0,0-3.533,1.36l.045.048C62.352,359.054,62.436,359.135,62.52,359.217Zm0,0" transform="translate(-58.22 -334.536)" fill="#334856"/>
  <path id="Path_24" data-name="Path 24" d="M3.31,240.374a17.938,17.938,0,0,1,3.913-1.557,26.75,26.75,0,0,1-1.041-7.134H0A14.409,14.409,0,0,0,3.31,240.374Zm0,0" transform="translate(0 -216.77)" fill="#334856"/>
</svg>
