<svg xmlns="http://www.w3.org/2000/svg" width="13.944" height="18.333" viewBox="0 0 13.944 18.333">
  <g id="man-user" transform="translate(-41.895)">
    <path id="Path_27" data-name="Path 27" d="M108.226,8.966c2.038,0,3.691-2.007,3.691-4.483S111.374,0,108.226,0s-3.691,2.007-3.691,4.483S106.188,8.966,108.226,8.966Z" transform="translate(-59.359)" fill="#fff"/>
    <path id="Path_28" data-name="Path 28" d="M41.9,300.45c0-.151,0-.043,0,0Z" transform="translate(0 -284.638)" fill="#fff"/>
    <path id="Path_29" data-name="Path 29" d="M308.085,301.623c0-.041,0-.287,0,0Z" transform="translate(-252.247 -285.694)" fill="#fff"/>
    <path id="Path_30" data-name="Path 30" d="M55.843,184.06c-.068-4.313-.632-5.542-4.942-6.32a3.028,3.028,0,0,1-4.042,0c-4.264.769-4.861,1.98-4.94,6.18-.006.343-.009.361-.011.321,0,.075,0,.213,0,.453,0,0,1.026,2.069,6.971,2.069s6.971-2.069,6.971-2.069c0-.155,0-.262,0-.335A2.777,2.777,0,0,1,55.843,184.06Z" transform="translate(-0.012 -168.43)" fill="#fff"/>
  </g>
</svg>
