<svg xmlns="http://www.w3.org/2000/svg" width="19.875" height="17.682" viewBox="0 0 19.875 17.682">
  <path id="heart" d="M9.937,17.682a1.165,1.165,0,0,1-.768-.289c-.8-.7-1.577-1.362-2.26-1.944l0,0a42.029,42.029,0,0,1-4.934-4.631A7.4,7.4,0,0,1,0,5.973,6.212,6.212,0,0,1,1.577,1.73,5.344,5.344,0,0,1,5.552,0,5,5,0,0,1,8.675,1.078,6.389,6.389,0,0,1,9.937,2.4,6.39,6.39,0,0,1,11.2,1.078,5,5,0,0,1,14.323,0,5.345,5.345,0,0,1,18.3,1.73a6.212,6.212,0,0,1,1.577,4.242A7.4,7.4,0,0,1,17.9,10.815a42.025,42.025,0,0,1-4.934,4.631c-.684.583-1.459,1.244-2.264,1.947a1.166,1.166,0,0,1-.768.288ZM5.552,1.164A4.193,4.193,0,0,0,2.433,2.52,5.053,5.053,0,0,0,1.164,5.973a6.224,6.224,0,0,0,1.7,4.1,41.359,41.359,0,0,0,4.793,4.488l0,0c.686.584,1.463,1.247,2.271,1.954.814-.709,1.592-1.372,2.279-1.957a41.37,41.37,0,0,0,4.793-4.488,6.225,6.225,0,0,0,1.7-4.1A5.053,5.053,0,0,0,17.442,2.52a4.193,4.193,0,0,0-3.119-1.355A3.861,3.861,0,0,0,11.912,2a5.649,5.649,0,0,0-1.343,1.555.735.735,0,0,1-1.262,0A5.644,5.644,0,0,0,7.963,2a3.861,3.861,0,0,0-2.41-.835Zm0,0" transform="translate(0 0)" fill="#606970"/>
</svg>
