<svg xmlns="http://www.w3.org/2000/svg" width="16.346" height="17.34" viewBox="0 0 16.346 17.34">
  <g id="share" transform="translate(0 0)">
    <path id="Path_103" data-name="Path 103" d="M27.043,11.14a3.1,3.1,0,0,0-2.456,1.21L19.824,9.689A3.11,3.11,0,0,0,20,8.666,3.042,3.042,0,0,0,19.82,7.64l4.76-2.657A3.1,3.1,0,1,0,23.939,3.1a3.027,3.027,0,0,0,.176,1.026L19.359,6.783a3.1,3.1,0,1,0,.007,3.763l4.76,2.661a3.1,3.1,0,1,0,2.916-2.067Zm0-10.164A2.128,2.128,0,1,1,24.915,3.1,2.13,2.13,0,0,1,27.043.976ZM16.9,10.794a2.128,2.128,0,1,1,2.128-2.128A2.13,2.13,0,0,1,16.9,10.794Zm10.139,5.57a2.128,2.128,0,1,1,2.128-2.128A2.13,2.13,0,0,1,27.043,16.364Z" transform="translate(-13.8 0)" fill="#606970"/>
  </g>
</svg>
