<svg xmlns="http://www.w3.org/2000/svg" width="23.937" height="20.53" viewBox="0 0 23.937 20.53">
  <g id="gallary" transform="translate(-0.001 -0.5)">
    <path id="Path_108" data-name="Path 108" d="M183.152,101.122a2.4,2.4,0,1,0-2.4-2.4A2.405,2.405,0,0,0,183.152,101.122Zm0-3.4a.993.993,0,1,1-.993.994A.995.995,0,0,1,183.152,97.725Zm0,0" transform="translate(-172.308 -91.343)" fill="#334856"/>
    <path id="Path_109" data-name="Path 109" d="M23.064.5H.875A.875.875,0,0,0,0,1.374V20.156a.875.875,0,0,0,.874.874H23.064a.875.875,0,0,0,.874-.874V1.374A.875.875,0,0,0,23.064.5Zm-.529,1.4V13L18.124,8.591a.739.739,0,0,0-1.043,0L10.843,14.83,6.858,10.845a.738.738,0,0,0-1.044,0L1.4,15.255V1.9ZM1.4,19.627V17.239l4.932-4.932,3.985,3.985a.737.737,0,0,0,1.044,0L17.6,10.053l4.933,4.933v4.642Zm0,0" fill="#334856"/>
  </g>
</svg>
