<svg xmlns="http://www.w3.org/2000/svg" width="12.5" height="21.186" viewBox="0 0 12.5 21.186">
  <g id="cellphone" transform="translate(-162.361)">
    <path id="Path_31" data-name="Path 31" d="M172.938,21.186a1.884,1.884,0,0,0,1.923-1.926V1.926A1.884,1.884,0,0,0,172.938,0h-8.654a1.884,1.884,0,0,0-1.923,1.926V19.26a1.884,1.884,0,0,0,1.923,1.926Zm-4.327-.8a.962.962,0,1,1,.962-.962A.962.962,0,0,1,168.611,20.385Zm-2.4-19.211a.211.211,0,0,1,.213-.213H170.8a.213.213,0,0,1,.213.213v.057a.211.211,0,0,1-.212.213H166.42a.213.213,0,0,1-.213-.213ZM163.323,2.4H173.9V17.788H163.323Z" fill="#fff"/>
  </g>
</svg>
