<svg xmlns="http://www.w3.org/2000/svg" width="15.923" height="12.511" viewBox="0 0 15.923 12.511">
  <g id="envelope" transform="translate(0 -54.82)">
    <g id="Group_5" data-name="Group 5" transform="translate(0 54.82)">
      <path id="Path_6" data-name="Path 6" d="M1.528,58.676q.3.213,1.822,1.266t2.328,1.621l.378.271q.289.209.48.338T7,62.462a2.681,2.681,0,0,0,.511.24,1.408,1.408,0,0,0,.444.08h.018a1.409,1.409,0,0,0,.444-.08,2.683,2.683,0,0,0,.511-.24q.271-.16.462-.289t.48-.338q.289-.209.378-.271L14.4,58.676a4.221,4.221,0,0,0,1.084-1.093,2.347,2.347,0,0,0,.436-1.342A1.434,1.434,0,0,0,14.5,54.82H1.422a1.269,1.269,0,0,0-1.053.462A1.794,1.794,0,0,0,0,56.437,2.076,2.076,0,0,0,.489,57.65,4.41,4.41,0,0,0,1.528,58.676Z" transform="translate(0 -54.82)" fill="#fff"/>
      <path id="Path_7" data-name="Path 7" d="M15.035,185.21q-2.914,1.972-4.425,3.066-.506.373-.822.582a5.073,5.073,0,0,1-.84.426,2.557,2.557,0,0,1-.977.218H7.953a2.558,2.558,0,0,1-.977-.218,5.075,5.075,0,0,1-.84-.426q-.315-.209-.822-.582Q4.114,187.4.9,185.21a4.707,4.707,0,0,1-.9-.773v7.055a1.369,1.369,0,0,0,.418,1,1.369,1.369,0,0,0,1,.418H14.5a1.426,1.426,0,0,0,1.422-1.422v-7.055A4.9,4.9,0,0,1,15.035,185.21Z" transform="translate(0 -180.403)" fill="#fff"/>
    </g>
  </g>
</svg>
