<svg xmlns="http://www.w3.org/2000/svg" width="82.667" height="82.668" viewBox="0 0 82.667 82.668">
  <g id="key" transform="translate(-0.001 0)">
    <g id="Group_347" data-name="Group 347" transform="translate(0.001 0)">
      <path id="Path_118" data-name="Path 118" d="M74.878,7.79A26.627,26.627,0,0,0,30.713,34.829l-30,30A2.42,2.42,0,0,0,0,66.544v13.7a2.421,2.421,0,0,0,2.422,2.422h13.7a2.42,2.42,0,0,0,1.712-.71l3.425-3.427a2.422,2.422,0,0,0,.693-1.991l-.426-3.68,5.1-.48A2.418,2.418,0,0,0,28.811,70.2l.48-5.1,3.68.428a2.383,2.383,0,0,0,1.89-.6,2.428,2.428,0,0,0,.811-1.809V58.61H40.1a2.42,2.42,0,0,0,1.712-.71l6.211-6.129a26.228,26.228,0,0,0,26.855-6.3A26.671,26.671,0,0,0,74.878,7.79ZM68.026,24.916a7.265,7.265,0,1,1,0-10.274A7.272,7.272,0,0,1,68.026,24.916Z" transform="translate(-0.001 0)" fill="#fff"/>
    </g>
  </g>
</svg>
